<svg xmlns="http://www.w3.org/2000/svg" viewBox="0 0 64 64"><title>receive</title><g id="receive"><path d="M28.08,30.92h-8a1,1,0,0,0,0,2h8A1,1,0,0,0,28.08,30.92Z"/><path d="M28.08,25.92h-8a1,1,0,0,0,0,2h8A1,1,0,0,0,28.08,25.92Z"/><path d="M54.06,42.79a3.9,3.9,0,0,0-3.81-3.06c-2.11,0-2.6,1-7.7,6.07A4,4,0,0,0,38.83,40H28a7,7,0,0,0-6,3.48A3,3,0,0,1,19.36,45H5a1,1,0,0,0,0,2H19.36a5,5,0,0,0,4.32-2.51A5,5,0,0,1,28,42H38.83A2.12,2.12,0,0,1,41,43.85,2,2,0,0,1,39,46c-2.94,0-4-.23-5.11.87A3,3,0,0,0,36.11,52H46.34c1.51,0,1.53-.45,8.18-7.1a2,2,0,0,1,2.92,0,1.9,1.9,0,0,1-.08,2.61l-8.14,8A9,9,0,0,1,42.91,58H5a1,1,0,0,0,0,2H42.91a11,11,0,0,0,7.71-3.15l8.15-8A3.88,3.88,0,0,0,54.06,42.79ZM35,49.25A1,1,0,0,1,36,48c3,0,3.64.14,4.79-.44L38.35,50C36.13,50,35.26,50.16,35,49.25Zm6.14.75c8.47-8.47,8-8.27,9.07-8.27A1.91,1.91,0,0,1,51.59,45C45.82,50.77,47.72,50,41.17,50Z"/><path d="M14,38H50a1,1,0,0,0,1-1V5a1,1,0,0,0-1-1H14a1,1,0,0,0-1,1V37A1,1,0,0,0,14,38ZM35,6v5H29V6ZM15,6H27v6a1,1,0,0,0,1,1h8a1,1,0,0,0,1-1V6H49V36H15Z"/></g></svg>