<svg xmlns="http://www.w3.org/2000/svg" viewBox="0 0 88 88"><title>Artboard-38</title><g id="CS"><path d="M72,85H68.1656l3.8227-24.8477A1,1,0,0,0,71,59H67V50.6846a6.9767,6.9767,0,0,0-4-6.31V20a19,19,0,0,0-38,0V44.3748a6.9767,6.9767,0,0,0-4,6.31V59H17a1,1,0,0,0-.9883,1.1523L19.8344,85H16a1,1,0,0,0,0,2H72a1,1,0,0,0,0-2ZM44,3A17.019,17.019,0,0,1,61,20V43.72l-10-2.5V35.727A11.9814,11.9814,0,0,0,56,26V22a4.0039,4.0039,0,0,0-4-4H41a9.0436,9.0436,0,0,1-7.2-3.6006A1,1,0,0,0,32,15V26a11.9817,11.9817,0,0,0,5,9.7269V41.22l-10,2.5V20A17.019,17.019,0,0,1,44,3Zm5,38.6673a6.1861,6.1861,0,0,1-10,0V36.8947a11.8618,11.8618,0,0,0,10,0ZM54,24.723l-.2852.4752a7.8685,7.8685,0,0,1-5.9155,3.7489,3.0064,3.0064,0,1,0,.0336,1.9978A9.8812,9.8812,0,0,0,53.7146,28.33,9.9944,9.9944,0,0,1,34,26V17.4805A11.06,11.06,0,0,0,41,20H52a2.0027,2.0027,0,0,1,2,2ZM46,30a1,1,0,1,1-1-1A1.0006,1.0006,0,0,1,46,30ZM23,50.6846a4.9921,4.9921,0,0,1,3.7876-4.8506l10.8171-2.7047a8.177,8.177,0,0,0,12.7907,0L61.2129,45.834A4.9927,4.9927,0,0,1,65,50.6846V59H57V54a1,1,0,0,0-2,0v5H33V54a1,1,0,0,0-2,0v5H23ZM21.8579,85,18.1655,61H69.834L66.1416,85Z" style="fill:#1d1b1e"/><path d="M44,69a4,4,0,1,0,4,4A4.0042,4.0042,0,0,0,44,69Zm0,6a2,2,0,1,1,2-2A2.0023,2.0023,0,0,1,44,75Z" style="fill:#1d1b1e"/></g></svg>