<svg xmlns="http://www.w3.org/2000/svg" viewBox="0 0 32 32"><g id="delivery"><path d="M27.49,2h-12A2.62,2.62,0,0,0,13,4.71V14a1,1,0,0,0,2,0V4.71c0-.38.24-.71.51-.71h12c.27,0,.51.33.51.71V28H17V18.54A1.54,1.54,0,0,0,15.46,17H5.54A1.54,1.54,0,0,0,4,18.54V25a1,1,0,0,0,2,0V19H8v3a1,1,0,0,0,1,1h3a1,1,0,0,0,1-1V19h2v9H3a1,1,0,0,0,0,2H29a1,1,0,0,0,1-1V4.71A2.62,2.62,0,0,0,27.49,2ZM11,21H10V19h1Z"/><path d="M9,27a1,1,0,0,0,0-2H8a1,1,0,0,0,0,2Z"/><path d="M26,16V15a1,1,0,0,0-2,0v1a1,1,0,0,0,2,0Z"/></g></svg>